<svg xmlns="http://www.w3.org/2000/svg" xml:space="preserve" width="512px" height="512px" style="shape-rendering:geometricPrecision; text-rendering:geometricPrecision; image-rendering:optimizeQuality; fill-rule:evenodd; clip-rule:evenodd" viewBox="0 0 512 512" xmlns:xlink="http://www.w3.org/1999/xlink">
 <defs>
  <style type="text/css">
   
    .fil0 {fill:#60C3D8}
    .fil1 {fill:#C7C7C6}
   
  </style>
 </defs>
 <g id="Layer_x0020_1">
  <metadata id="CorelCorpID_0Corel-Layer"></metadata>
  <g id="_178213376">
   <path id="_178212440" class="fil0" d="M347.118 508.132l-318.287 0c-15.8103,0 -28.708,-12.8977 -28.708,-28.708l0 -446.849c0,-15.8103 13.3134,-28.708 28.708,-28.708l317.871 0c15.8103,0 28.708,12.8977 28.708,28.708l0 447.265c0.415749,15.8103 -12.4819,28.2922 -28.2922,28.2922zm-14.9776 -76.1388l-179.738 0c-4.15986,0 -7.48939,-3.32836 -7.48939,-7.48939 0,-4.15986 3.32954,-7.48821 7.48939,-7.48821l179.738 0c4.15986,0 7.48821,3.32836 7.48821,7.48821 0,4.16104 -3.32836,7.48939 -7.48821,7.48939zm-249.637 0l-37.8615 0c-4.15986,0 -7.48821,-3.32836 -7.48821,-7.48939 0,-4.15986 3.32836,-7.48821 7.48821,-7.48821l37.8615 0c4.16104,0 7.48939,3.32836 7.48939,7.48821 0,4.16104 -3.74411,7.48939 -7.48939,7.48939zm249.637 -84.4609l-287.915 0c-4.15986,0 -7.48821,-3.32836 -7.48821,-7.48821 0,-4.16104 3.32836,-7.48939 7.48821,-7.48939l287.915 0c4.15986,0 7.48821,3.32836 7.48821,7.48939 0,4.15986 -3.32836,7.48821 -7.48821,7.48821zm0 -84.044l-287.915 0c-4.15986,0 -7.48821,-3.32836 -7.48821,-7.48821 0,-4.16104 3.32836,-7.48939 7.48821,-7.48939l287.915 0c4.15986,0 7.48821,3.32836 7.48821,7.48939 0,4.15986 -3.32836,7.48821 -7.48821,7.48821zm0 -84.4597l-287.915 0c-4.15986,0 -7.48821,-3.32836 -7.48821,-7.48821 0,-4.16104 3.32836,-7.48939 7.48821,-7.48939l287.915 -0.00118111c4.15986,0 7.48821,3.32836 7.48821,7.48939 0,4.15986 -3.32836,7.48939 -7.48821,7.48939zm-87.7892 -84.0451l-112.752 0c-4.16104,0 -7.48939,-3.32836 -7.48939,-7.48821 0,-4.15986 3.32836,-7.48939 7.48939,-7.48939l112.752 0c4.15986,0 7.48821,3.32954 7.48821,7.48939 0,4.15986 -3.32718,7.48821 -7.48821,7.48821z"></path>
   <path id="_178213208" class="fil1" d="M436.571 397.742l0 -320.649c0,-20.8028 16.6418,-37.8615 37.4458,-37.8615 20.8028,0 37.8604,17.0599 37.8604,37.8615l0 320.649 -75.3061 0z"></path>
   <path id="_178213040" class="fil1" d="M474.017 472.767c0,0 0,0 0,0 -2.91379,0 -5.40947,-1.66418 -6.65789,-4.16104l-28.043 -56.8643 70.2061 0 -28.4328 56.8643c-1.66418,2.49686 -4.16104,4.16104 -7.07246,4.16104z"></path>
  </g>
 </g>
</svg>